<svg xmlns="http://www.w3.org/2000/svg" width="780" height="520" viewBox="0 0 780 520">
<rect width="100%" height="100%" fill="white"/>
<style>text{font-family:Arial,sans-serif;fill:#111827} .axis{stroke:#374151;stroke-width:1.2} .grid{stroke:#e5e7eb;stroke-width:1}</style>
<text x="90" y="30" font-size="20" font-weight="700">Privacy-utility frontier</text>
<line class="grid" x1="90.0" y1="55" x2="90.0" y2="435"/>
<line class="grid" x1="90" y1="435.0" x2="740" y2="435.0"/>
<text x="80.0" y="459" font-size="12">0</text>
<text x="48" y="439.0" font-size="12">0</text>
<line class="grid" x1="252.5" y1="55" x2="252.5" y2="435"/>
<line class="grid" x1="90" y1="340.0" x2="740" y2="340.0"/>
<text x="242.5" y="459" font-size="12">0.25</text>
<text x="48" y="344.0" font-size="12">0.25</text>
<line class="grid" x1="415.0" y1="55" x2="415.0" y2="435"/>
<line class="grid" x1="90" y1="245.0" x2="740" y2="245.0"/>
<text x="405.0" y="459" font-size="12">0.5</text>
<text x="48" y="249.0" font-size="12">0.5</text>
<line class="grid" x1="577.5" y1="55" x2="577.5" y2="435"/>
<line class="grid" x1="90" y1="150.0" x2="740" y2="150.0"/>
<text x="567.5" y="459" font-size="12">0.75</text>
<text x="48" y="154.0" font-size="12">0.75</text>
<line class="grid" x1="740.0" y1="55" x2="740.0" y2="435"/>
<line class="grid" x1="90" y1="55.0" x2="740" y2="55.0"/>
<text x="730.0" y="459" font-size="12">1</text>
<text x="48" y="59.0" font-size="12">1</text>
<line class="axis" x1="90" y1="435" x2="740" y2="435"/>
<line class="axis" x1="90" y1="55" x2="90" y2="435"/>
<text x="320.0" y="494" font-size="14">Utility fact preservation higher is better</text>
<text x="20" y="335.0" transform="rotate(-90 20 335.0)" font-size="14">Risk-weighted leakage lower is better</text>
<circle cx="718.4" cy="55.0" r="8" fill="#4b5563" opacity="0.92"/>
<text x="730.4" y="60.0" font-size="12">None</text>
<circle cx="718.4" cy="76.8" r="8" fill="#2563eb" opacity="0.92"/>
<text x="730.4" y="81.8" font-size="12">Direct</text>
<circle cx="718.4" cy="432.9" r="8" fill="#dc2626" opacity="0.92"/>
<text x="730.4" y="437.9" font-size="12">Blanket QI</text>
<circle cx="718.4" cy="316.9" r="8" fill="#059669" opacity="0.92"/>
<text x="730.4" y="321.9" font-size="12">RB-QIG strict</text>
<circle cx="718.4" cy="251.5" r="8" fill="#0d9488" opacity="0.92"/>
<text x="730.4" y="256.5" font-size="12">RB-QIG balanced</text>
<circle cx="718.4" cy="243.6" r="8" fill="#65a30d" opacity="0.92"/>
<text x="730.4" y="248.6" font-size="12">RB-QIG utility</text>
</svg>
